<svg width="28" height="32" viewBox="0 0 28 32" fill="none" xmlns="http://www.w3.org/2000/svg">
<path d="M21.6405 22.189C20.0586 23.6111 17.9699 24.3994 15.6778 24.3994C10.625 24.3994 6.91442 20.6888 6.91442 15.5942C6.91442 10.4997 10.507 6.94531 15.6778 6.94531C17.9299 6.94531 20.0586 7.69541 21.6805 9.11753L22.7829 10.0656L27.6813 5.16902L26.4554 4.06293C23.573 1.46026 19.7462 0 15.676 0C6.59478 0 0 6.553 0 15.5561C0 24.5211 6.75279 31.3084 15.676 31.3084C19.8225 31.3084 23.6892 29.8481 26.5353 27.2037L27.7195 26.0976L22.7448 21.2046L21.6405 22.189Z" fill="black"/>
<path d="M15.4371 10.4214C16.8302 10.4214 18.1662 10.9748 19.1513 11.9598C20.1363 12.9449 20.6897 14.2809 20.6897 15.674C20.6897 17.067 20.1363 18.403 19.1513 19.3881C18.1662 20.3731 16.8302 20.9265 15.4371 20.9265C14.0441 20.9265 12.7081 20.3731 11.723 19.3881C10.738 18.403 10.1846 17.067 10.1846 15.674C10.1846 14.2809 10.738 12.9449 11.723 11.9598C12.7081 10.9748 14.0441 10.4214 15.4371 10.4214Z" fill="#FF3D2E"/>
</svg>
